<svg width="36" height="86" viewBox="0 0 36 86" fill="none" xmlns="http://www.w3.org/2000/svg">
<path d="M24.189 8.5C24.189 11.8137 21.5027 14.5 18.189 14.5C14.8753 14.5 12.189 11.8137 12.189 8.5C12.189 5.18629 14.8753 2.5 18.189 2.5C21.5027 2.5 24.189 5.18629 24.189 8.5Z" fill="#FE4451"/>
<path d="M6 16L10 16L18 18.6191L26 16L30 16L32 27.5238L34.5 40.0952L36 49H33.5L30 41.4571L26 32.9714L24 40.0952H12L10 32.9714L6.5 40.9857L3 49H0L1.5 40.0952L6 16Z" fill="#FE828B"/>
<path d="M12 45H24L27 82H24L18 53.4091L12 82H9L12 45Z" fill="#FEC0C5"/>
</svg>
