<svg width="25" height="25" viewBox="0 0 26 22" fill="none" xmlns="http://www.w3.org/2000/svg">
<mask id="path-1-inside-1" fill="white">
<path d="M13.866 21.5C13.4811 22.1667 12.5189 22.1667 12.134 21.5L0.875643 2C0.490743 1.33333 0.971869 0.5 1.74167 0.5L24.2583 0.5C25.0281 0.5 25.5093 1.33333 25.1244 2L13.866 21.5Z"/>
</mask>
<path d="M25.1244 2L6.93782 -8.5L25.1244 2ZM0.875643 2L-17.3109 12.5L0.875643 2ZM13.866 21.5L32.0526 32L13.866 21.5ZM30.3205 11L19.0622 -8.5L-17.3109 12.5L-6.05256 32L30.3205 11ZM1.74167 21.5L24.2583 21.5L24.2583 -20.5L1.74167 -20.5L1.74167 21.5ZM6.93782 -8.5L-4.32051 11L32.0526 32L43.3109 12.5L6.93782 -8.5ZM24.2583 21.5C8.86227 21.5 -0.760154 4.83329 6.93782 -8.5L43.3109 12.5C51.7787 -2.16662 41.194 -20.5 24.2583 -20.5L24.2583 21.5ZM19.0622 -8.5C26.7602 4.83338 17.1376 21.5 1.74167 21.5L1.74167 -20.5C-15.1939 -20.5 -25.7787 -2.16672 -17.3109 12.5L19.0622 -8.5ZM-6.05256 32C2.41522 46.6666 23.5847 46.6667 32.0526 32L-4.32051 11C3.37752 -2.33338 22.6225 -2.33328 30.3205 11L-6.05256 32Z" fill="#FE4451" mask="url(#path-1-inside-1)"/>
</svg>
